<?xml version="1.0" encoding="UTF-8" standalone="no"?>
<!-- Created with Inkscape (http://www.inkscape.org/) -->

<svg
        xmlns:dc="http://purl.org/dc/elements/1.1/"
        xmlns:cc="http://creativecommons.org/ns#"
        xmlns:rdf="http://www.w3.org/1999/02/22-rdf-syntax-ns#"
        xmlns:svg="http://www.w3.org/2000/svg"
        xmlns="http://www.w3.org/2000/svg"
        xmlns:sodipodi="http://sodipodi.sourceforge.net/DTD/sodipodi-0.dtd"
        xmlns:inkscape="http://www.inkscape.org/namespaces/inkscape"
        width="160"
        height="80"
        viewBox="0 0 160 80.000002"
        id="svg2"
        version="1.1"
        inkscape:version="0.91 r13725"
        sodipodi:docname="m24.svg">
    <defs
            id="defs4" />
    <sodipodi:namedview
            id="base"
            pagecolor="#cccccc"
            bordercolor="#666666"
            borderopacity="1.0"
            inkscape:pageopacity="0"
            inkscape:pageshadow="2"
            inkscape:zoom="6.7"
            inkscape:cx="80"
            inkscape:cy="40"
            inkscape:document-units="px"
            inkscape:current-layer="layer1"
            showgrid="false"
            inkscape:window-width="1366"
            inkscape:window-height="705"
            inkscape:window-x="-8"
            inkscape:window-y="-8"
            inkscape:window-maximized="1"
            units="px"
            fit-margin-top="0"
            fit-margin-left="0"
            fit-margin-right="0"
            fit-margin-bottom="0" />
    <metadata
            id="metadata7">
        <rdf:RDF>
            <cc:Work
                    rdf:about="">
                <dc:format>image/svg+xml</dc:format>
                <dc:type
                        rdf:resource="http://purl.org/dc/dcmitype/StillImage" />
                <dc:title></dc:title>
            </cc:Work>
        </rdf:RDF>
    </metadata>
    <g
            inkscape:label="Layer 1"
            inkscape:groupmode="layer"
            id="layer1"
            transform="translate(-2.398,-0.52483)">
        <path
                inkscape:connector-curvature="0"
                id="path3347"
                style="font-style:normal;font-variant:normal;font-weight:normal;font-stretch:normal;font-size:80px;line-height:125%;font-family:monocons;-inkscape-font-specification:monocons;letter-spacing:0px;word-spacing:0px;fill:#ffffff;fill-opacity:1;stroke:none;stroke-width:1px;stroke-linecap:butt;stroke-linejoin:miter;stroke-opacity:1"
                d="m 2.398,40.52483 q 0,-16.5625 11.71875,-28.28125 Q 25.8355,0.52483 42.398,0.52483 q 16.5625,0 28.28125,11.71875 11.71875,11.71875 11.71875,28.28125 0,16.5625 -11.71875,28.28125 Q 58.9605,80.52483 42.398,80.52483 25.8355,80.52483 14.11675,68.80608 2.398,57.08733 2.398,40.52483 l 0,0 z m 4.375,0 q 0,14.6875 10.46875,25.15625 10.46875,10.46875 25.15625,10.46875 14.6875,0 25.15625,-10.46875 Q 78.023,55.21233 78.023,40.52483 78.023,25.83733 67.55425,15.36858 57.0855,4.89983 42.398,4.89983 27.7105,4.89983 17.24175,15.36858 6.773,25.83733 6.773,40.52483 l 0,0 z m 13.4375,22.1875 0,-44.375 q 0,-1.48438 1.40625,-2.1875 0.39062,-0.15625 0.70312,-0.15625 0.85938,0 1.64063,0.78125 L 42.398,35.36858 60.8355,16.77483 q 0.78125,-0.78125 1.64062,-0.78125 0.39063,0 0.85938,0.15625 1.25,0.70312 1.25,2.1875 l 0,44.375 q 0,0.9375 -0.625,1.5625 -0.625,0.625 -1.5625,0.625 -0.9375,0 -1.5625,-0.625 -0.625,-0.625 -0.625,-1.5625 l 0,-39.0625 -14.6875,14.84375 5.46875,5.625 q 3.59375,3.59375 3.59375,8.59375 0,5 -3.59375,8.59375 -3.59375,3.59375 -8.59375,3.59375 -5,0 -8.59375,-3.59375 -3.59375,-3.59375 -3.59375,-8.59375 0,-5 3.59375,-8.59375 l 5.46875,-5.625 -14.6875,-14.84375 0,39.0625 q 0,0.9375 -0.625,1.5625 -0.625,0.625 -1.5625,0.625 -0.9375,0 -1.5625,-0.625 -0.625,-0.625 -0.625,-1.5625 l 0,0 z m 14.375,-10 q 0,3.35937 2.34375,5.46875 2.10937,2.34375 5.46875,2.34375 3.28125,0 5.625,-2.34375 2.1875,-2.1875 2.1875,-5.46875 0,-3.125 -2.34375,-5.46875 l -5.46875,-5.625 -5.46875,5.625 q -2.34375,2.34375 -2.34375,5.46875 l 0,0 z" />
        <path
                inkscape:connector-curvature="0"
                id="path3349"
                style="font-style:normal;font-variant:normal;font-weight:normal;font-stretch:normal;font-size:80px;line-height:125%;font-family:monocons;-inkscape-font-specification:monocons;letter-spacing:0px;word-spacing:0px;fill:#ffffff;fill-opacity:1;stroke:none;stroke-width:1px;stroke-linecap:butt;stroke-linejoin:miter;stroke-opacity:1"
                d="m 82.398,40.52483 q 0,-16.5625 11.71875,-28.28125 Q 105.8355,0.52483 122.398,0.52483 q 16.5625,0 28.28125,11.71875 11.71875,11.71875 11.71875,28.28125 0,16.5625 -11.71875,28.28125 -11.71875,11.71875 -28.28125,11.71875 -16.5625,0 -28.28125,-11.71875 Q 82.398,57.08733 82.398,40.52483 l 0,0 z m 14.21875,22.5 23.75,0 0,-6.71875 -15,0 q 0.23437,-2.73438 1.40625,-4.375 1.17187,-1.64063 6.5625,-7.03125 4.21875,-3.98438 5.46875,-6.25 1.09375,-1.95313 1.09375,-5.625 l 0,-4.53125 q 0,-2.8125 -0.625,-4.6875 -1.64063,-6.5625 -10.78125,-6.5625 -5,0 -7.96875,2.5 -2.96875,2.5 -2.96875,7.8125 l 0,5.625 7.34375,0 0,-5.46875 q 0,-4.375 3.90625,-4.375 3.28125,0 3.28125,3.90625 l 0,5.15625 q 0,2.5 -0.9375,3.90625 -1.32813,1.875 -6.25,6.5625 -2.34375,2.34375 -4.21875,4.53125 -1.48438,1.95312 -2.65625,5.9375 -1.40625,3.98437 -1.40625,9.6875 l 0,0 z m 26.875,-8.59375 13.75,0 0,8.59375 7.1875,0 0,-8.59375 2.8125,0 0,-6.25 -2.8125,0 0,-30.46875 -9.375,0 -11.5625,30.46875 0,6.25 0,0 z m 6.71875,-6.25 7.03125,0 0.46875,-22.5 -7.5,22.5 z" />
    </g>
</svg>
